<?xml version="1.0" encoding="UTF-8" standalone="no"?>
<!-- Created with Inkscape (http://www.inkscape.org/) -->

<svg
   width="104"
   height="24"
   viewBox="0 0 27.516666 6.3500002"
   version="1.1"
   id="svg1055"
   inkscape:version="1.1.2 (0a00cf5339, 2022-02-04)"
   sodipodi:docname="dark.svg"
   xmlns:inkscape="http://www.inkscape.org/namespaces/inkscape"
   xmlns:sodipodi="http://sodipodi.sourceforge.net/DTD/sodipodi-0.dtd"
   xmlns="http://www.w3.org/2000/svg"
   xmlns:svg="http://www.w3.org/2000/svg">
  <sodipodi:namedview
     id="namedview1057"
     pagecolor="#ffffff"
     bordercolor="#666666"
     borderopacity="1.0"
     inkscape:pageshadow="2"
     inkscape:pageopacity="0.0"
     inkscape:pagecheckerboard="0"
     inkscape:document-units="mm"
     showgrid="false"
     units="px"
     inkscape:zoom="6.4070146"
     inkscape:cx="25.284787"
     inkscape:cy="52.67664"
     inkscape:window-width="1858"
     inkscape:window-height="1082"
     inkscape:window-x="1458"
     inkscape:window-y="564"
     inkscape:window-maximized="0"
     inkscape:current-layer="g928" />
  <defs
     id="defs1052" />
  <g
     inkscape:label="Layer 1"
     inkscape:groupmode="layer"
     id="layer1">
    <g
       id="g928"
       transform="matrix(0.12905505,0,0,0.12905505,8.3255518,12.059937)">
      <text
         xml:space="preserve"
         style="font-style:normal;font-variant:normal;font-weight:normal;font-stretch:normal;font-size:48.6264px;line-height:1.25;font-family:'Noto Sans Display';-inkscape-font-specification:'Noto Sans Display, Normal';font-variant-ligatures:normal;font-variant-caps:normal;font-variant-numeric:normal;font-variant-east-asian:normal;letter-spacing:-1.77866px;fill:#56585c;fill-opacity:1;stroke:#56585c;stroke-width:1.69005;stroke-miterlimit:4;stroke-dasharray:none;stroke-opacity:1"
         x="25.627649"
         y="-47.073006"
         id="text902"><tspan
           sodipodi:role="line"
           id="tspan900"
           style="font-style:normal;font-variant:normal;font-weight:normal;font-stretch:normal;font-size:59.5766px;font-family:'Noto Sans Display';-inkscape-font-specification:'Noto Sans Display, Normal';font-variant-ligatures:normal;font-variant-caps:normal;font-variant-numeric:normal;font-variant-east-asian:normal;fill:#56585c;fill-opacity:1;stroke:#56585c;stroke-width:1.69005;stroke-miterlimit:4;stroke-dasharray:none;stroke-opacity:1"
           x="25.627649"
           y="-47.073006">rba s</tspan></text>
      <path
         d="m 36.905078,-88.046245 c 0,-2.19115 -1.783171,-3.97431 -3.974314,-3.97431 -2.191146,0 -3.974316,1.78316 -3.974316,3.97431 0,2.19115 1.78317,3.97431 3.974316,3.97431 2.191143,0 3.974314,-1.78316 3.974314,-3.97431 z m -3.974314,1.32477 c -0.731328,0 -1.324773,-0.59344 -1.324773,-1.32477 0,-0.73133 0.593445,-1.32477 1.324773,-1.32477 0.729974,0 1.32477,0.5948 1.32477,1.32477 0,0.72997 -0.593444,1.32477 -1.32477,1.32477 z"
         id="path904"
         style="fill:#f78d1f;fill-opacity:1;stroke:#56585c;stroke-width:0.0264955;stroke-opacity:1" />
      <rect
         style="fill:#ffffff;fill-opacity:1;stroke:#ffffff;stroke-width:0.994241;stroke-miterlimit:4;stroke-dasharray:none;stroke-opacity:1"
         id="rect906"
         height="33.590717"
         x="29.638844"
         y="-79.720055"
         width="6.5490403" />
      <text
         xml:space="preserve"
         style="font-style:normal;font-variant:normal;font-weight:normal;font-stretch:normal;font-size:59.8895px;line-height:1.25;font-family:'Noto Sans Display';-inkscape-font-specification:'Noto Sans Display, Normal';font-variant-ligatures:normal;font-variant-caps:normal;font-variant-numeric:normal;font-variant-east-asian:normal;letter-spacing:-0.438129px;fill:#ffffff;fill-opacity:1;stroke:#ffffff;stroke-width:1.69005;stroke-miterlimit:4;stroke-dasharray:none;stroke-opacity:1"
         x="-7.2660084"
         y="-47.115559"
         id="text910"><tspan
           sodipodi:role="line"
           id="tspan908"
           style="font-style:normal;font-variant:normal;font-weight:normal;font-stretch:normal;font-size:63.832px;font-family:'Noto Sans Display';-inkscape-font-specification:'Noto Sans Display, Normal';font-variant-ligatures:normal;font-variant-caps:normal;font-variant-numeric:normal;font-variant-east-asian:normal;fill:#ffffff;fill-opacity:1;stroke:#ffffff;stroke-width:1.69005;stroke-miterlimit:4;stroke-dasharray:none;stroke-opacity:1"
           x="-7.2660084"
           y="-47.115559">a</tspan></text>
      <g
         id="g922"
         transform="matrix(0.04920381,0,0,0.04920381,-68.472456,-98.368385)"
         style="fill:#f78d1f;fill-opacity:1">
        <path
           d="m 750,250 c 0,-82.699 -67.301,-150 -150,-150 -82.699,0 -150,67.301 -150,150 0,82.699 67.301,150 150,150 82.699,0 150,-67.301 150,-150 z m -150,50 c -27.602,0 -50,-22.398 -50,-50 0,-27.602 22.398,-50 50,-50 27.551,0 50,22.449 50,50 0,27.551 -22.398,50 -50,50 z"
           id="path912"
           style="fill:#f78d1f;fill-opacity:1" />
        <path
           d="m 950,800 c -82.699,0 -150,67.301 -150,150 0,82.699 67.301,150 150,150 82.699,0 150,-67.301 150,-150 0,-82.699 -67.301,-150 -150,-150 z m 0,200 c -27.602,0 -50,-22.449 -50,-50 0,-27.551 22.398,-50 50,-50 27.602,0 50,22.449 50,50 0,27.551 -22.398,50 -50,50 z"
           id="path914"
           style="fill:#f78d1f;fill-opacity:1" />
        <path
           d="m 250,800 c -82.699,0 -150,67.301 -150,150 0,82.699 67.352,150 150.05,150 C 332.698,1100 400,1032.699 400,950 400,867.301 332.699,800 250,800 Z m 0.0508,200 c -27.652,0 -50.051,-22.449 -50.051,-50 0,-27.551 22.398,-50 50,-50 27.602,0 50,22.449 50,50 0,27.551 -22.398,50 -49.949,50 z"
           id="path916"
           style="fill:#f78d1f;fill-opacity:1" />
        <path
           d="M 950,600 C 950,517.301 882.648,450 799.95,450 717.302,450 650,517.301 650,600 c 0,82.699 67.301,150 150,150 82.699,0 150,-67.301 150,-150 z m -200,0 c 0,-13.352 5.1992,-25.898 14.648,-35.352 9.4531,-9.4492 22,-14.648 35.352,-14.648 27.602,0 50,22.449 50,50 0,27.551 -22.398,50 -50,50 -27.602,0 -50,-22.449 -50,-50 z"
           id="path918"
           style="fill:#f78d1f;fill-opacity:1" />
        <path
           d="m 400,450 c -82.699,0 -150,67.301 -150,150 0,82.699 67.301,150 150,150 82.699,0 150,-67.301 150,-150 0,-82.699 -67.301,-150 -150,-150 z m 0,200 c -27.602,0 -50,-22.449 -50,-50 0,-27.551 22.449,-50 50,-50 27.602,0 50,22.449 50,50 0,27.551 -22.398,50 -50,50 z"
           id="path920"
           style="fill:#f78d1f;fill-opacity:1" />
      </g>
      <path
         d="m 120.22818,-88.046245 c 0,-2.19115 -1.78317,-3.97431 -3.97432,-3.97431 -2.19114,0 -3.97431,1.78316 -3.97431,3.97431 0,2.19115 1.78317,3.97431 3.97431,3.97431 2.19115,0 3.97432,-1.78316 3.97432,-3.97431 z m -3.97432,1.32477 c -0.73132,0 -1.32477,-0.59344 -1.32477,-1.32477 0,-0.73133 0.59345,-1.32477 1.32477,-1.32477 0.72998,0 1.32477,0.5948 1.32477,1.32477 0,0.72997 -0.59344,1.32477 -1.32477,1.32477 z"
         id="path924"
         style="fill:#f78d1f;fill-opacity:1;stroke:#56585c;stroke-width:0.0264955;stroke-opacity:1" />
      <rect
         style="fill:#56585c;fill-opacity:1;stroke:#56585c;stroke-width:0.91778;stroke-miterlimit:4;stroke-dasharray:none;stroke-opacity:1"
         id="rect926"
         width="5.4892354"
         height="32.814327"
         x="113.50925"
         y="-78.905434" />
    </g>
  </g>
</svg>
